<svg width="12" height="12" viewBox="0 0 12 12" fill="none" xmlns="http://www.w3.org/2000/svg">
<path fill-rule="evenodd" clip-rule="evenodd" d="M4.87208 10.7323L4.86271 10.6176V7.18133H1.44319C0.932008 7.18375 0.506767 6.78891 0.471368 6.279C0.435928 5.76905 0.802483 5.31921 1.30908 5.25095L1.42506 5.24158H4.86202V1.82205C4.86472 1.31321 5.25935 0.892549 5.76697 0.857354C6.27459 0.822159 6.72348 1.18434 6.79641 1.68791L6.80513 1.80393V5.23822H10.2247C10.7361 5.23593 11.1614 5.63101 11.1969 6.14121C11.2323 6.65141 10.8656 7.10149 10.3588 7.16992L10.2421 7.17798H6.80513V10.5975C6.8048 11.1076 6.40984 11.5306 5.90091 11.5659C5.39194 11.6013 4.94231 11.2369 4.87147 10.7316L4.87208 10.7323Z" fill="#384455"/>
</svg>
