<svg width="10" height="8" viewBox="0 0 10 8" fill="none" xmlns="http://www.w3.org/2000/svg">
<path fill-rule="evenodd" clip-rule="evenodd" d="M2.72053 7.18205L0.321289 4.76802C-0.0530599 4.38849 -0.0530599 3.77888 0.321289 3.40009C0.50125 3.21957 0.745576 3.11822 1.00044 3.11822C1.25531 3.11822 1.49964 3.21957 1.6796 3.40009L3.40079 5.13275L8.0046 0.502956C8.18363 0.3217 8.42805 0.219604 8.68301 0.219604C8.93797 0.219604 9.18239 0.3217 9.36143 0.502956C9.73615 0.880264 9.73615 1.48988 9.36143 1.86644L4.07958 7.18057C3.90008 7.36109 3.65547 7.46318 3.40042 7.46318C3.14537 7.46318 2.90076 7.36109 2.72127 7.18057L2.72053 7.18205Z" fill="white"/>
</svg>
