<svg width="60" height="60" viewBox="0 0 60 60" fill="none" xmlns="http://www.w3.org/2000/svg">
<path fill-rule="evenodd" clip-rule="evenodd" d="M0 30V16C0 11.5817 1.5621 7.81049 4.68629 4.68629C7.81049 1.5621 11.5817 0 16 0H44C48.4183 0 52.1895 1.5621 55.3137 4.68629C58.4379 7.81049 60 11.5817 60 16V44C60 48.4183 58.4379 52.1895 55.3137 55.3137C52.1895 58.4379 48.4183 60 44 60H16C11.5817 60 7.81049 58.4379 4.68629 55.3137C1.5621 52.1895 0 48.4183 0 44V30Z" fill="#2A2C2B"/>
<path fill-rule="evenodd" clip-rule="evenodd" d="M17.872 43.424C17.4432 42.6978 17.3274 41.8286 17.5511 41.0154C17.7749 40.2022 18.319 39.5147 19.059 39.11L40.124 27.268C41.671 26.3947 43.6319 26.9063 44.555 28.424C44.9839 29.1505 45.0996 30.0198 44.8759 30.8331C44.6522 31.6464 44.108 32.3342 43.368 32.7391L22.3 44.579C21.8057 44.8571 21.2481 45.0031 20.681 45.003C19.5317 45.0087 18.4644 44.4088 17.872 43.424ZM15.439 31.5821C15.0105 30.8557 14.8949 29.9867 15.1186 29.1736C15.3423 28.3605 15.8862 27.6729 16.626 27.268L37.692 15.427C39.2384 14.5531 41.1992 15.0643 42.122 16.5821C42.5508 17.3084 42.6666 18.1778 42.4429 18.991C42.2191 19.8044 41.675 20.4921 40.935 20.8971L19.87 32.738C19.3759 33.0156 18.8187 33.1613 18.252 33.161C17.1013 33.1673 16.0323 32.567 15.439 31.581V31.5821Z" fill="white"/>
</svg>
