<svg width="9" height="12" viewBox="0 0 9 12" fill="none" xmlns="http://www.w3.org/2000/svg">
<path d="M8 3V10C8 10.2652 7.89464 10.5196 7.70711 10.7071C7.51957 10.8946 7.26522 11 7 11H2C1.73478 11 1.48043 10.8946 1.29289 10.7071C1.10536 10.5196 1 10.2652 1 10V3M2.5 3V2C2.5 1.73478 2.60536 1.48043 2.79289 1.29289C2.98043 1.10536 3.23478 1 3.5 1H5.5C5.76522 1 6.01957 1.10536 6.20711 1.29289C6.39464 1.48043 6.5 1.73478 6.5 2V3" stroke="white" stroke-linecap="round" stroke-linejoin="round"/>
</svg>
