<svg width="15" height="20" viewBox="0 0 15 20" fill="none" xmlns="http://www.w3.org/2000/svg">
<path d="M14.0011 2.80978L12.1902 0.998874C11.8743 0.681267 11.4986 0.429452 11.0848 0.257999C10.671 0.0865461 10.2272 -0.00114111 9.77931 1.12112e-05H3.40909C2.50527 0.00109384 1.63879 0.360612 0.999695 0.999706C0.360601 1.6388 0.00108263 2.50529 0 3.4091V15.6818C0.00108263 16.5856 0.360601 17.4521 0.999695 18.0912C1.63879 18.7303 2.50527 19.0898 3.40909 19.0909H11.5909C12.4947 19.0898 13.3612 18.7303 14.0003 18.0912C14.6394 17.4521 14.9989 16.5856 15 15.6818V5.22069C15.0011 4.77275 14.9135 4.32903 14.742 3.9152C14.5705 3.50137 14.3187 3.12565 14.0011 2.80978ZM13.037 3.77387C13.1334 3.87078 13.22 3.97698 13.2954 4.09092H11.5909C11.4101 4.09092 11.2366 4.01908 11.1088 3.89122C10.9809 3.76335 10.9091 3.58993 10.9091 3.4091V1.70456C11.0231 1.78025 11.1292 1.86704 11.2261 1.96365L13.037 3.77387ZM11.5909 17.7273H3.40909C2.8666 17.7273 2.34633 17.5118 1.96273 17.1282C1.57914 16.7446 1.36364 16.2243 1.36364 15.6818V3.4091C1.36364 2.86661 1.57914 2.34634 1.96273 1.96275C2.34633 1.57915 2.8666 1.36365 3.40909 1.36365H9.54545V3.4091C9.54545 3.95159 9.76095 4.47186 10.1445 4.85545C10.5281 5.23905 11.0484 5.45455 11.5909 5.45455H13.6364V15.6818C13.6364 16.2243 13.4209 16.7446 13.0373 17.1282C12.6537 17.5118 12.1334 17.7273 11.5909 17.7273Z" fill="white"/>
<path d="M4.09088 6.13634H6.81815C6.99897 6.13634 7.1724 6.06451 7.30026 5.93664C7.42813 5.80877 7.49996 5.63535 7.49996 5.45452C7.49996 5.27369 7.42813 5.10027 7.30026 4.9724C7.1724 4.84454 6.99897 4.77271 6.81815 4.77271H4.09088C3.91005 4.77271 3.73662 4.84454 3.60876 4.9724C3.48089 5.10027 3.40906 5.27369 3.40906 5.45452C3.40906 5.63535 3.48089 5.80877 3.60876 5.93664C3.73662 6.06451 3.91005 6.13634 4.09088 6.13634Z" fill="white"/>
<path d="M10.9091 7.5H4.09088C3.91005 7.5 3.73662 7.57183 3.60876 7.6997C3.48089 7.82757 3.40906 8.00099 3.40906 8.18182C3.40906 8.36265 3.48089 8.53607 3.60876 8.66394C3.73662 8.7918 3.91005 8.86364 4.09088 8.86364H10.9091C11.0899 8.86364 11.2633 8.7918 11.3912 8.66394C11.519 8.53607 11.5909 8.36265 11.5909 8.18182C11.5909 8.00099 11.519 7.82757 11.3912 7.6997C11.2633 7.57183 11.0899 7.5 10.9091 7.5Z" fill="white"/>
<path d="M10.9091 10.2273H4.09088C3.91005 10.2273 3.73662 10.2991 3.60876 10.427C3.48089 10.5549 3.40906 10.7283 3.40906 10.9091C3.40906 11.0899 3.48089 11.2634 3.60876 11.3912C3.73662 11.5191 3.91005 11.5909 4.09088 11.5909H10.9091C11.0899 11.5909 11.2633 11.5191 11.3912 11.3912C11.519 11.2634 11.5909 11.0899 11.5909 10.9091C11.5909 10.7283 11.519 10.5549 11.3912 10.427C11.2633 10.2991 11.0899 10.2273 10.9091 10.2273Z" fill="white"/>
<path d="M9.54542 12.9545H4.09088C3.91005 12.9545 3.73662 13.0264 3.60876 13.1542C3.48089 13.2821 3.40906 13.4555 3.40906 13.6363C3.40906 13.8172 3.48089 13.9906 3.60876 14.1185C3.73662 14.2463 3.91005 14.3182 4.09088 14.3182H9.54542C9.72625 14.3182 9.89967 14.2463 10.0275 14.1185C10.1554 13.9906 10.2272 13.8172 10.2272 13.6363C10.2272 13.4555 10.1554 13.2821 10.0275 13.1542C9.89967 13.0264 9.72625 12.9545 9.54542 12.9545Z" fill="white"/>
</svg>
