<svg width="25" height="25" viewBox="0 0 25 25" fill="none" xmlns="http://www.w3.org/2000/svg">
<g clip-path="url(#clip0_87_1314)">
<path d="M17.35 3C16.033 1.64455 14.4163 0.617013 12.63 5.01052e-07C12.5371 -0.0263801 12.4386 -0.0253095 12.3463 0.00308279C12.2541 0.0314751 12.172 0.0859749 12.11 0.160001C12.049 0.234648 12.0109 0.325334 12.0003 0.42114C11.9896 0.516945 12.0069 0.613786 12.05 0.7C13.1083 2.65738 13.404 4.93742 12.88 7.1C12.8714 7.13354 12.8521 7.16338 12.825 7.18502C12.798 7.20665 12.7646 7.21893 12.73 7.22C12.64 7.22 12.62 7.22 12.62 7.15C11.8564 5.29981 10.5708 3.71188 8.92 2.58C8.83583 2.5245 8.73685 2.49573 8.63605 2.49749C8.53524 2.49924 8.43732 2.53142 8.35513 2.58982C8.27295 2.64822 8.21033 2.73009 8.17551 2.82471C8.14069 2.91932 8.13528 3.02226 8.16 3.12C8.75 5.43 7.59 6.82 6.16 8.58C4.73 10.34 3 12.4 3 15.72C3.03513 17.8415 3.78166 19.8897 5.11989 21.5361C6.45812 23.1826 8.31051 24.332 10.38 24.8C9.95813 24.5022 9.61302 24.1085 9.37309 23.6513C9.13317 23.194 9.00529 22.6863 9 22.17C9 16.83 12.5 15.5 12.5 15.5C13.2 19 16 19.8 16 22.17C15.995 22.6804 15.8702 23.1824 15.6357 23.6357C15.4013 24.0891 15.0636 24.481 14.65 24.78C16.1171 24.4618 17.4879 23.8003 18.65 22.85C19.7022 21.9777 20.5482 20.8834 21.1274 19.6454C21.7066 18.4075 22.0046 17.0567 22 15.69C22 9 19.47 5.1 17.35 3Z" fill="#00C49A"/>
</g>
<defs>
<clipPath id="clip0_87_1314">
<rect width="25" height="25" fill="white"/>
</clipPath>
</defs>
</svg>
