<svg width="19" height="25" viewBox="0 0 19 25" fill="none" xmlns="http://www.w3.org/2000/svg">
<path d="M14.35 2.99999C13.033 1.64453 11.4163 0.616998 9.63 -1.47577e-05C9.53713 -0.0263953 9.43861 -0.0253248 9.34633 0.00306753C9.25406 0.0314599 9.17198 0.0859597 9.11 0.159985C9.04901 0.234633 9.0109 0.325319 9.00025 0.421124C8.98961 0.51693 9.00688 0.61377 9.05 0.699985C10.1083 2.65736 10.404 4.9374 9.88 7.09999C9.87136 7.13353 9.85206 7.16336 9.82501 7.185C9.79796 7.20664 9.76462 7.21892 9.73 7.21999C9.64 7.21999 9.62 7.21999 9.62 7.14999C8.85642 5.29979 7.57079 3.71187 5.92 2.57999C5.83583 2.52448 5.73685 2.49572 5.63605 2.49747C5.53524 2.49922 5.43732 2.53141 5.35513 2.58981C5.27295 2.6482 5.21033 2.73008 5.17551 2.82469C5.14069 2.91931 5.13528 3.02224 5.16 3.11999C5.75 5.42999 4.59 6.81999 3.16 8.57999C1.73 10.34 0 12.4 0 15.72C0.0351278 17.8414 0.781664 19.8896 2.11989 21.5361C3.45812 23.1826 5.31051 24.332 7.38 24.8C6.95813 24.5022 6.61302 24.1085 6.37309 23.6513C6.13317 23.194 6.00529 22.6863 6 22.17C6 16.83 9.5 15.5 9.5 15.5C10.2 19 13 19.8 13 22.17C12.995 22.6803 12.8702 23.1824 12.6357 23.6357C12.4013 24.089 12.0636 24.481 11.65 24.78C13.1171 24.4617 14.4879 23.8003 15.65 22.85C16.7022 21.9777 17.5482 20.8833 18.1274 19.6454C18.7066 18.4075 19.0046 17.0567 19 15.69C19 8.99998 16.47 5.09999 14.35 2.99999Z" fill="#F35800"/>
</svg>
