<svg width="27" height="28" viewBox="0 0 27 28" fill="none" xmlns="http://www.w3.org/2000/svg">
<path d="M3.375 7.45703H5.625H23.625" stroke="#FF0000" stroke-width="2" stroke-linecap="round" stroke-linejoin="round"/>
<path d="M21.375 7.45703V23.207C21.375 23.8038 21.1379 24.3761 20.716 24.798C20.294 25.22 19.7217 25.457 19.125 25.457H7.875C7.27826 25.457 6.70597 25.22 6.28401 24.798C5.86205 24.3761 5.625 23.8038 5.625 23.207V7.45703M9 7.45703V5.20703C9 4.61029 9.23705 4.038 9.65901 3.61604C10.081 3.19408 10.6533 2.95703 11.25 2.95703H15.75C16.3467 2.95703 16.919 3.19408 17.341 3.61604C17.7629 4.038 18 4.61029 18 5.20703V7.45703" stroke="#FF0000" stroke-width="2" stroke-linecap="round" stroke-linejoin="round"/>
</svg>
