<svg width="60" height="60" viewBox="0 0 60 60" fill="none" xmlns="http://www.w3.org/2000/svg">
<circle cx="30" cy="30" r="30" fill="#384455"/>
<path fill-rule="evenodd" clip-rule="evenodd" d="M24.02 38.9933C21.3422 39.0846 19.0938 36.9948 18.989 34.3175L18.989 29.4503C19.093 26.7726 21.3414 24.6818 24.02 24.7726L25.02 24.7721C25.3773 24.7721 25.7074 24.9625 25.886 25.2721C26.0647 25.5817 26.0647 25.9625 25.886 26.2721C25.7074 26.5817 25.3773 26.7721 25.02 26.7721H24.02C22.4846 26.7194 21.1956 27.9176 21.136 29.4528V34.3204C21.197 35.8546 22.4854 37.0519 24.02 37.0001H35.972C37.5071 37.0519 38.7955 35.8536 38.855 34.319V29.441C38.7953 27.9127 37.5125 26.7198 35.9841 26.7711H34.972C34.6148 26.7711 34.2847 26.5807 34.106 26.2711C33.9274 25.9615 33.9274 25.5807 34.106 25.2711C34.2847 24.9615 34.6148 24.7711 34.972 24.7711H35.9841C38.6557 24.6818 40.8979 26.7672 41.002 29.4381L41.0021 34.316C40.8984 36.9933 38.65 39.0836 35.972 38.9918L24.02 38.9933ZM28.92 32.0074V21.4073L27.6251 22.6173C27.1896 22.9962 26.5416 22.9962 26.1061 22.6173C25.906 22.4376 25.7917 22.1813 25.7917 21.9122C25.7917 21.6432 25.906 21.3868 26.1061 21.2072L29.2371 18.2843C29.6795 17.9215 30.3166 17.9215 30.759 18.2843L33.89 21.2072C34.0898 21.3873 34.2038 21.6432 34.2038 21.9122C34.2038 22.1813 34.0898 22.4371 33.89 22.6173C33.4583 23.007 32.8017 23.007 32.37 22.6173L31.07 21.4073V32.0074H28.92Z" fill="white"/>
</svg>
